/* XPM */
static char *b271fb7dc249478ade200e03296cba4eaproXWN8BDUFoqjm[] = {
/* columns rows colors chars-per-pixel */
"50 50 66 1 ",
"  c #95664A",
". c #97684C",
"X c #996A4E",
"o c #9A6B4F",
"O c #976750",
"+ c #986851",
"@ c #996952",
"# c #986A53",
"$ c #9A6A53",
"% c #9B6C50",
"& c #9C6D53",
"* c #9D6E52",
"= c #9E6F53",
"- c #996B54",
"; c #9B6B54",
": c #9A6C55",
"> c #9C6C55",
", c #9E6F55",
"< c #9D6D56",
"1 c #9C6E57",
"2 c #9D6F57",
"3 c #9E6E57",
"4 c #9D6F58",
"5 c #9E6E58",
"6 c #9F6F58",
"7 c #9F6F59",
"8 c #9F7054",
"9 c #9F7056",
"0 c #9E7059",
"q c #9F715A",
"w c #A07155",
"e c #A07157",
"r c #A17256",
"t c #A27357",
"y c #A07059",
"u c #A17258",
"i c #A27359",
"p c #A0705A",
"a c #A1715A",
"s c #A1715B",
"d c #A0725B",
"f c #A2725B",
"g c #A37458",
"h c #A3745A",
"j c #A4755B",
"k c #A1735C",
"l c #A2725C",
"z c #A3735C",
"x c #A3735D",
"c c #A2745D",
"v c #A3755E",
"b c #A4745D",
"n c #A5765C",
"m c #A6775D",
"M c #A4745E",
"N c #A5755E",
"B c #A5755F",
"V c #A4765F",
"C c #A6765F",
"Z c #A57760",
"A c #A67660",
"S c #A77760",
"D c #A77761",
"F c #A67861",
"G c #A77962",
"H c #A87862",
/* pixels */
"wwwwgwwggttwwo. @;2y,yyB;5yyBfff6fffbbbbbbbbbbbbff",
"wwgwwwwwwwww=oo.+@;,yyyy3yyyyfff6ffbbNNbbbbbbbbbfb",
"gwwww8w8wwtww*oo+;y53;;y3yyyyffB6ffbNNNNbbbbbffbbb",
"gggwww**wwwwww**+;;y;yyyy33yfybfffbbNNNNbbbbfbffNN",
"gbggw2w22,wwbw,=;y,yyyyBy33yyyBBfffNNCCNbbfbfff6NN",
"bgcgiiiw2iibtb,b;,Bsyyyyyyy3,ffBffbNCCCCbbbfffffNN",
"gbgbgbbgwittbw,,5yyyyyyyfy33,ffBfbNNCCCCbbffff66NN",
"mmmmmbmmwbgbtb,,;yyy5;yyfy355,bBfbNNCCCCbbbf66f3bb",
"bbZbBBBbbbbfBfbbf33ffff333yfy33$3ffNNCCCffffffffbb",
"bmZbBBbBmmNNANBNff5fbff333yyy33;3ffNNHCCffffffffbf",
"ZDDZDBDBNBDNBABBff,ffbf3y3yyyy333ffNCCCNffffffffff",
"DDbDBDBDBBBBlBBBffffbff33yyyy3y36fbNCCNNffffffffff",
"bDDZDBDBBBBBBlBBfffffff3yy3y3yyyfffNNNNbffffffffbb",
"DDDDDDDDAADDDADDNffBBbf3yyy3yyffffbNNNbNffffffffbb",
"DDDDDDDDDDDDDDDDNNffffy3fy5y3yffffNNCNbfffffffffbf",
"DDDDDDDDBBBBBBBBNNfbBff3fyy5,yfBfbNCCNNfffffffffff",
"GGGGFFZZZZZZZZZZNNNNNffb3,3353ffffNbNNNNNbbfbbbNyb",
"GGGGFFZZZZZZZZZZNNNbNfbfff33ffffbfNNNNNNNbbbfbbNBb",
"GGGGFFZZZZZZZZZZNNNbbfbfff5ffffNNNNNmHNNNbbfbbbNBB",
"GGGGFFZZZZZZZZZZNNNbNbfbfffffffNNNADHACHNbbbfbbNBb",
"GGGGFFZZZZZZZZZZNNNbbfbffffffNfNNNNmDmDmNbbfbbbNby",
"GGGGFFZZZZZZZZZZNNNbNffbfffffNNNbBNNDDNNNbNffbbNbb",
"GGGGFFZZZZZZZZZZNNNbNfbfff3ffffNfbNNmABbNbbbbbbNbb",
"GGGGFFZZZZZZZZZZNNNbbffbffffffffffBNNNbbNbbffNbNBb",
"GGGGFFZZZFFFGGFGNffff3f3333fffNNNNNNNbfffffbffyy,b",
"GGGGFFZZZZZFFFFFffffffff3333ffffbbNNNbbbfybffyfyfy",
"GGGGFFZZZccZZZcZ3ff33f3ff3ffffNfbbNNNbb,fffbfyfybb",
"GGGGFFZZZZcZcZlc3333f3ffffffffffbbNNNbbbffbbffyybb",
"GGGGFFZZZZccccll33333fffffffffffbfbbbBbbffbbfyyybb",
"GGGGFFZZZZZcZlls3ff3f3f3fffff3f3ffbbNbbbffbfbyfybb",
"GGGGFFZZFFZcccbiffff3fff3333f33ffbbNNNBbfffbfyyybf",
"GGGGFFZZGGZZZZBfNffffff333333333fbbNNNBBfybfbyf,fb",
"GGGGFFZZZZZcZZccqqqqqqqqqqqqqqccZZAAABslssssssssyb",
"GGGGFFZZZZZZZccZqqcqcqqqqqqqqqcclZZlAslsssssssssby",
"GGGGFFZZZZZZZZcZcccccZccqcqqqcqcBBAABBsBBslslsBsyb",
"GGGGFFZZZZZZcZcccqcccqqcqqqcqqZcBAAAAABlBBBBBBBBBy",
"GGGGFFZZZZZZZZccqcqqqccqcqqcqcccAAAAAABsBsBsBBBByB",
"GGGGFFZZZZZcZccZqqqcqqqqccqqcccZAADDAABBBBBBBsBsBi",
"GGGGFFZZZZZZZZcZqcqqccqcccccqcZcAZDDAAAssBsBsBlBbb",
"GGGGFFZZZZZZcZcccZZZcZcZcqqccccZAZDDAAABBsBsBsBsbb",
"FFFFFFFFFFFZZZcZZccccqqccccqqqqqsAADDAAABslBssAAib",
"FFFFFFFFFFZZZZcZZcZqccqcccZZZZZZAAAAAAAABlBlBBBABb",
"FFFFFFFFFZZZZcZZZZccqqqqqcccZcZZAAAAAAssslllslBBBB",
"FFFFFFFFZZZZZZZccZZccccqqqqqcqccAAAAssssslsslsBsBi",
"FFFFFFFFZZZZZZcZZZccqccqqqqcqZcqAAAsss55ss5sssBlBb",
"FFFFFFFFcccccZcZcZccccqqZccZcZcZslssssss5ssssslsZb",
"FFFFFFFFccZccZZZcZZccqqcccqqqq00sss5s5sss5s5yyslZb",
"FFFFFFFFcccccZcZZZccccqq0000:-##ss5555sss55y5sslll",
"ZcccZZccZqqqZFc0111111111101110cs7qqlZq101qqq101qi",
"ZZqqcZZcZqqqZZc011111111100011qql77qqZq110q1qq11qi"
};
