/* XPM */
static char *f432d9741e0a47d0d9dd8c5426afa5b7jNylVg9jYoGF7HIp[] = {
/* columns rows colors chars-per-pixel */
"40 40 121 2 ",
"   c #30272C",
".  c #332A2F",
"X  c #362C33",
"o  c #382F34",
"O  c #3A3136",
"+  c #3D343B",
"@  c #40373E",
"#  c #42393E",
"$  c #413740",
"%  c #453C42",
"&  c #483F46",
"*  c #493F48",
"=  c #4B4246",
"-  c #4D434A",
";  c #50474D",
":  c #52494E",
">  c #514750",
",  c #554B52",
"<  c #584F55",
"1  c #594F58",
"2  c #5A5156",
"3  c #5D535A",
"4  c #60575D",
"5  c #62595E",
"6  c #615760",
"7  c #655C62",
"8  c #685F66",
"9  c #695F68",
"0  c #6A6166",
"q  c #6D6369",
"w  c #70676C",
"e  c #736A6E",
"r  c #716770",
"t  c #766C72",
"y  c #786F75",
"u  c #7B7276",
"i  c #7D7479",
"p  c #80777C",
"a  c #837A7E",
"s  c #857C81",
"d  c #887F84",
"f  c #8B8286",
"g  c #8D848A",
"h  c #90878C",
"j  c #938A8F",
"k  c #92898E",
"l  c #948B8C",
"z  c #948B8E",
"x  c #958C8F",
"c  c #938A8D",
"v  c #918790",
"b  c #938991",
"n  c #948B90",
"m  c #948A92",
"M  c #958B93",
"N  c #958C91",
"B  c #968D92",
"V  c #978E93",
"C  c #968C94",
"Z  c #958C92",
"A  c #988F92",
"S  c #988F94",
"D  c #988F95",
"F  c #998F98",
"G  c #998F98",
"H  c #999091",
"J  c #999093",
"K  c #999095",
"L  c #9A9194",
"P  c #9A9196",
"I  c #9B9297",
"U  c #9C9396",
"Y  c #9E9596",
"T  c #9B9295",
"R  c #9A9098",
"E  c #9B9199",
"W  c #9C9398",
"Q  c #9C929A",
"!  c #9D939B",
"~  c #9D9499",
"^  c #9E9598",
"/  c #9E959A",
"(  c #9F969B",
")  c #9E949C",
"_  c #9F959D",
"`  c #9D939B",
"'  c #A0979C",
"]  c #A0969E",
"[  c #A1979F",
"{  c #A0969D",
"}  c #A1989D",
"|  c #A39A9D",
" . c #A2999E",
".. c #A39A9F",
"X. c #A39A9E",
"o. c #A197A0",
"O. c #A298A0",
"+. c #A399A1",
"@. c #A49BA0",
"#. c #A49AA2",
"$. c #A59BA3",
"%. c #A59CA1",
"&. c #A69DA2",
"*. c #A79EA3",
"=. c #A69CA4",
"-. c #A79DA5",
";. c #A59BA3",
":. c #A89FA4",
">. c #A89EA7",
",. c #A9A0A5",
"<. c #AAA1A6",
"1. c #ABA2A7",
"2. c #ACA3A8",
"3. c #ACA2AA",
"4. c #ADA4A9",
"5. c #AEA5AA",
"6. c #ACA2AA",
"7. c #B3AAAF",
"8. c #B7AEB3",
"9. c #B2A8B1",
"0. c #BAB1B6",
/* pixels */
"s g j j g B ( ..,.,.1.4.,. .( ( 5 2 j K B I }  . .N K I N 0 e h g f K f f r , i ",
"z P @.*.*.( ( ( ( ~ ~ ( ~ K B S 0 3 K %. .( } }  .( 1.,.k : 0 8.1.( ,.I ~ i , a ",
"j g f g f a s f ~ S N K K K K I 3 , h ( I h f d h d f k k , < K h i g k ~ i ; i ",
"g s i i i y u a g i i i f g h N 3 , j  .n i u i t f n f h 3 5 ( k i g K @.u = f ",
"u e e i i y r y i y e u i g k S 3 2 B ( f y t i p N k a d 3 7 ..g u f K ( t = s ",
"i t t i i i u i y e q e i a f k 2 2 x S s u i a N f f f k 2 2 N f u g h L y ; f ",
"k g f s a s s f a i i a f f h K 5 5 S x f d f f f g }  .j , 4 N B g L k L i , f ",
"t i i y w 0 0 3 0 7 3 5 3 3 0 w 2 , f s i a s i i q 0 0 w : , 0 0 0 w 0 i t ; y ",
"= + + + . X = + + + O + = O % + % % % # # + + + + o # o O #   o + O O + O + + + ",
"w t i c k k g w = e g z g g Z g n h f s s p i y p p 0 % 0 k u a i i i i e e t w ",
"( %.,.2.<.<./ r : k <.@.I I ,./  ./ ~ } %.&.*.@./ 2.i # u 0.:.2.,.1.9.5.( / ( ~ ",
"J ~ J N j I J w : i k k N N ~ / P B n n S S k f f } p # 0 5.} I f k ~ Z k N / ~ ",
"k k f g N  .) 0 = f N B / / I Z I S j n N n g s s f p - 7 &.~ s r u d a y d M M ",
"N f y i f / J 3 = g I f g K I j S N N B K N k f f s t : 0 :./ p i d f d y d k v ",
"s t 7 0 t g N q + f f e i f Z Z n S N n v g s p f f w % q ,.K a d g g s y d h f ",
"i i y t t a h t ; i r 0 t w 0 w p s f k n N n v d ~ y # r 4.N N g G G v s k ! G ",
"6 6 6 1 1 1 3 7 * 1 1 - - - - - , > * 3 2 3 2 3 5 1 > , 3 6 3 1 6 7 1 > > 1 6 , ",
"$ $ $ $ + + $ $ $ $ + @ $ + + ; $ * * - o # % + $ $ $ % * * $ + + + + % + X $ + ",
"s s d d g d f f v d d v i 1 0 ( o.;.~ p : t l f g v n m m v g d a t y u 1 1 p s ",
"v M G ;.o.;.#.=.G G G ` p $ : Y 6.o.` y # t | | >.&.+. .;.;.;.;.#.~ L i * 6 ;.! ",
"d v G G l l l ~ ` V j V f ; = f s t a e # e | | H l l l G I I B H H Y f ; 5 | Y ",
"d v b f a u i a v G J R f : = f s q a e = e l Y a a s f n n g s s u f s : 2 H Y ",
"f f f a u u t t a H P P a # # l h u d w # e f H u a f l l f a u a p a a : 5 H Y ",
"f f f s f d a i f l g j s = = l s u f w # u f H a s l H l f a i u a f u : 5 l a ",
"a l f a d u u d a f f c a = = f Y a f e = u A B a a f f l l a i i f k i : 7 l f ",
"a f a i a u u a i f f x d - = g l a f w # w z / l f l a a l f a f g h y : 3 f d ",
"h g a i a i a a g k v M f , , f l l l a 2 u G / H l H H H Y H l m m v p 5 w l l ",
"2 , : = % = = - - - - > , = = 7 0 0 0 3 = 5 0 3 : # : 2 = 2 : = 1 3 3 3 ; : 0 3 ",
"+ $ 1 1 ; : - , * - % $ , , % @ # = % = + > * + - X $ % # = = % $ $ $ * * - > + ",
"1 9 ( >.| ..P ..6.6.;.` ;.o.y > u l h l v G m m p 6 t v l l x l G G v G G C G s ",
"1 9 ;.9.>.6.o.=.m G G G ! v 9 % t o.T / G m C o.r - q _ ;.o.( I ;.;.G ! G m G v ",
"6 9 _ ;.M G v V G C G ! G p 7 - q G g N v s i p y = 7 G _ I I ~ m G v v v s f f ",
", 8 Q ..d f g d g f M ( G i 6 > q n b a i y i s r - 7 g #.V G ` V g v g s f k d ",
"< q Q ' s a d d f s f V ( f 7 % 0 j j s a a f g y - q g ( J P g d i s d i f v d ",
", q A z t t u p d s s g P c 0 % 0 B j i p d g g u - e g V B V i i y i s i f f f ",
"; 8 g d 0 7 8 q s s s s f s 0 - q b g i i d f s u = r V B g g y r y y i i s f f ",
": 0 g d r q 8 q i d s s s i 0 = t V g p d g v g i = r ( P f g i i i i u i i a s ",
"4 e g d p i y i i i s d f f q - a G g s g g f d i ; y V B f g d d f a u i s i f ",
"3 7 r 9 7 0 7 9 q q 0 q r q 3 - 9 y 0 9 r 9 7 6 0 - 9 r q 0 r q 0 e q 5 q 0 0 0 ",
"= - - O + % + & $ & * % + + + $ X $ X + * $ O + - + - $ + $ - + + % + + = % + = "
};
